# xmcd CD database file
#
# Track frame offsets:
#	180
#	12180
#	21966
#	34788
#	48041
#	61669
#	73196
#	86814
#	97838
#	110145
#	122401
#	133915
#	146443
#	158834
#	171135
#	182202
#
# Disc length: 2596 seconds
#
# Revision: 0
# Processed by: cddbd v1.5.2PL0 Copyright (c) Steve Scherf et al.
# Submitted via: CDex 1.51
#
DISCID=d40a2210
DTITLE=Various Artist - Country Rare Roots Colorado Sunset
DYEAR=2005
DGENRE=Country
TTITLE0=Jules Verne Alen/The Days Of
TTITLE1=Cliff Carlisle/Pan American Man
TTITLE2=Woodie Brothers/Chased Old Satan
TTITLE3=Gene Autrey/I`ll Go Ridin`Down
TTITLE4=Rex Griffin/The Last Letter
TTITLE5=Dixie Ramblers/He`s an Army Man
TTITLE6=Sons Of Dixie/Don`t Ever Go Wrong
TTITLE7=Bar X Cowboys/When Mama Goes Out
TTITLE8=The Village Boys/Old Joe Is At It Again
TTITLE9=Hank Penny/I´m Singing The Blues
TTITLE10=Bob Wills/Roly Poly
TTITLE11=The Miller Brothers/Millers Boogie
TTITLE12=Lone Star Playboys/Banjo Boogie
TTITLE13=Bill Monroe/The Race Horse Song
TTITLE14=Lone Star Cowboys/Steel Guitar Bounce
TTITLE15=Bill Haley/Candy And Woman
EXTD=YEAR: 2005
EXTT0=
EXTT1=
EXTT2=
EXTT3=
EXTT4=
EXTT5=
EXTT6=
EXTT7=
EXTT8=
EXTT9=
EXTT10=
EXTT11=
EXTT12=
EXTT13=
EXTT14=
EXTT15=
PLAYORDER=
